<?xml version="1.0" standalone="no"?>
<!DOCTYPE svg PUBLIC "-//W3C//DTD SVG 20010904//EN"
 "http://www.w3.org/TR/2001/REC-SVG-20010904/DTD/svg10.dtd">
<svg version="1.0" xmlns="http://www.w3.org/2000/svg"
 width="1200.000000pt" height="1200.000000pt" viewBox="0 0 1200.000000 1200.000000"
 preserveAspectRatio="xMidYMid meet">

<g transform="translate(0.000000,1200.000000) scale(0.100000,-0.100000)"
fill="#000000" stroke="none">
<path d="M5660 11149 c-577 -37 -1173 -180 -1705 -411 -462 -200 -866 -449
-1275 -788 -148 -122 -501 -473 -619 -615 -701 -844 -1093 -1781 -1203 -2880
-17 -172 -17 -738 0 -910 110 -1094 501 -2035 1193 -2866 210 -252 559 -583
841 -797 1346 -1021 3136 -1312 4748 -772 1533 513 2740 1721 3250 3250 128
383 200 721 246 1155 24 223 24 747 0 970 -46 434 -118 771 -246 1155 -437
1312 -1395 2401 -2645 3006 -798 386 -1689 559 -2585 503z m2210 -2164 c174
-26 334 -81 470 -161 331 -197 509 -528 486 -906 -15 -252 -104 -459 -265
-616 l-66 -64 30 -20 c17 -12 68 -60 115 -107 69 -69 95 -104 133 -181 68
-134 87 -215 94 -390 11 -286 -57 -540 -203 -761 -24 -37 -44 -69 -44 -73 0
-3 227 -6 505 -6 l505 0 0 -115 0 -115 -837 0 c-482 0 -833 4 -827 9 5 5 68
50 139 101 72 51 158 115 192 142 323 255 445 841 239 1150 -48 73 -130 148
-212 194 -35 20 -135 64 -222 99 -140 57 -154 64 -132 73 81 32 298 135 340
162 74 47 174 159 209 234 51 106 71 202 71 341 0 88 -5 143 -20 199 -97 379
-494 616 -995 593 -436 -20 -741 -206 -861 -523 -20 -53 -54 -192 -54 -220 0
-2 69 -4 153 -4 l154 0 12 53 c41 186 182 334 381 401 74 25 104 30 230 34
128 4 156 2 225 -17 118 -33 209 -85 290 -166 115 -115 165 -236 165 -397 0
-165 -46 -276 -164 -394 -86 -85 -166 -132 -296 -173 -70 -22 -224 -51 -271
-51 l-29 0 0 -118 0 -119 103 -6 c347 -22 579 -184 663 -463 13 -43 18 -92 18
-179 0 -108 -3 -129 -30 -205 -91 -257 -316 -421 -598 -437 -318 -18 -621 140
-744 386 -23 46 -42 90 -42 97 0 11 -31 14 -164 14 l-164 0 14 -61 c34 -147
119 -294 237 -411 44 -43 145 -119 271 -204 l200 -134 -1652 0 -1653 0 103
115 103 115 590 1 c325 1 642 2 705 3 l115 1 0 125 0 125 -598 3 -599 2 79 93
c749 875 907 1093 1011 1389 85 241 86 505 2 717 -55 141 -184 303 -315 396
-269 191 -660 255 -1012 165 -323 -83 -580 -305 -673 -583 -31 -90 -53 -244
-48 -322 l3 -50 160 0 160 0 6 75 c27 320 214 553 508 632 102 27 298 30 391
5 257 -69 439 -250 502 -499 56 -223 -22 -467 -270 -844 -221 -336 -493 -670
-1131 -1386 l-246 -277 -572 0 -573 -1 0 115 0 115 514 0 515 0 44 48 c84 89
400 447 563 637 592 691 876 1108 930 1367 35 166 -45 344 -195 440 -131 83
-347 92 -497 22 -105 -49 -182 -141 -225 -264 -19 -55 -23 -93 -27 -242 l-4
-178 -395 0 -395 0 4 253 c5 232 7 260 32 352 28 110 93 252 154 342 174 255
473 434 827 495 169 29 450 22 605 -15 606 -144 984 -618 957 -1202 -11 -251
-92 -497 -248 -752 -62 -102 -245 -344 -425 -561 -87 -106 -170 -206 -183
-223 l-24 -29 462 0 461 0 2 -242 3 -243 368 -2 c202 0 367 3 367 7 0 5 -21
37 -48 72 -132 176 -202 391 -202 624 l0 114 394 0 394 0 4 -97 c4 -82 9 -107
32 -152 37 -72 111 -141 199 -185 97 -48 173 -66 283 -66 194 0 334 82 412
240 24 50 27 66 27 165 0 98 -3 116 -26 165 -48 103 -130 173 -252 213 -52 17
-96 22 -280 26 l-218 6 0 245 c0 135 0 293 0 353 l1 107 108 0 c281 0 499 74
589 201 117 165 56 395 -129 490 -94 48 -233 61 -359 35 -207 -44 -299 -173
-299 -418 l0 -68 -385 0 -385 0 0 109 c0 595 358 1001 966 1095 119 19 366 19
484 1z m-4252 -4517 c163 -333 299 -605 302 -603 3 2 138 276 300 609 l295
606 273 0 272 0 0 -1105 0 -1105 -275 0 -275 0 0 632 c0 380 -4 628 -9 623 -5
-6 -103 -203 -219 -440 l-209 -430 -154 -3 -155 -2 -219 442 -220 443 -3 -632
-2 -633 -275 0 -275 0 0 1105 0 1105 275 -2 275 -3 298 -607z m3400 400 l2
-208 -527 -2 -528 -3 -3 -232 -2 -233 465 0 465 0 0 -215 0 -215 -465 0 -465
0 0 -445 0 -445 -275 0 -275 0 0 1105 0 1105 803 -2 802 -3 3 -207z m742 -465
c0 -413 4 -703 10 -741 31 -190 140 -307 318 -342 93 -19 283 -8 354 19 109
42 188 125 226 236 15 45 17 121 20 778 l3 727 275 0 275 0 -3 -772 c-3 -762
-4 -774 -26 -853 -39 -142 -95 -238 -197 -340 -184 -184 -390 -260 -727 -272
-332 -11 -579 51 -769 195 -137 104 -232 248 -281 427 -22 79 -22 93 -26 848
l-3 767 275 0 276 0 0 -677z"/>
</g>
</svg>
