<?xml version="1.0" standalone="no"?>
<!DOCTYPE svg PUBLIC "-//W3C//DTD SVG 20010904//EN"
 "http://www.w3.org/TR/2001/REC-SVG-20010904/DTD/svg10.dtd">
<svg version="1.0" xmlns="http://www.w3.org/2000/svg"
 width="512.000000pt" height="512.000000pt" viewBox="0 0 512.000000 512.000000"
 preserveAspectRatio="xMidYMid meet">

<g transform="translate(0.000000,512.000000) scale(0.100000,-0.100000)"
fill="#000000" stroke="none">
<path d="M490 5104 c-232 -49 -426 -246 -475 -479 -22 -105 -22 -4025 0 -4130
49 -236 244 -431 480 -480 105 -22 4025 -22 4130 0 236 49 431 244 480 480 22
105 22 4025 0 4130 -49 236 -244 431 -480 480 -102 21 -4035 21 -4135 -1z
m2550 -1249 c33 -17 60 -61 60 -99 0 -14 -112 -287 -249 -608 -670 -1570 -784
-1834 -792 -1850 -25 -46 -44 -48 -474 -48 -336 0 -411 3 -434 15 -29 14 -61
68 -61 101 0 9 235 568 523 1242 466 1094 525 1227 552 1244 28 17 60 18 438
18 345 0 413 -2 437 -15z"/>
</g>
</svg>
